<svg width="640" height="340" viewBox="0 0 640 340" fill="none" xmlns="http://www.w3.org/2000/svg">
  <rect width="640" height="340" rx="24" fill="#FFF1E7"/>
  <circle cx="112" cy="86" r="42" fill="#FF6B4A" fill-opacity="0.22"/>
  <circle cx="530" cy="82" r="50" fill="#2BB8A5" fill-opacity="0.16"/>
  <rect x="92" y="88" width="456" height="164" rx="18" fill="#FFFFFF" stroke="#E7D7CC" stroke-width="2"/>
  <circle cx="176" cy="172" r="34" fill="#FFE3DA"/>
  <circle cx="176" cy="159" r="12" fill="#FF6B4A"/>
  <rect x="156" y="175" width="40" height="18" rx="9" fill="#FF6B4A"/>
  <circle cx="262" cy="172" r="34" fill="#DFF7F3"/>
  <circle cx="262" cy="159" r="12" fill="#2BB8A5"/>
  <rect x="242" y="175" width="40" height="18" rx="9" fill="#2BB8A5"/>
  <circle cx="348" cy="172" r="34" fill="#FFEFCF"/>
  <circle cx="348" cy="159" r="12" fill="#F6B73C"/>
  <rect x="328" y="175" width="40" height="18" rx="9" fill="#F6B73C"/>
  <rect x="402" y="136" width="122" height="72" rx="12" fill="#FFF1E7" stroke="#F3E4DA" stroke-width="2"/>
  <path d="M430 158H496" stroke="#FF6B4A" stroke-width="8" stroke-linecap="round"/>
  <path d="M430 183H482" stroke="#2BB8A5" stroke-width="8" stroke-linecap="round"/>
  <rect x="98" y="272" width="152" height="18" rx="9" fill="#FF6B4A" fill-opacity="0.2"/>
  <rect x="262" y="272" width="140" height="18" rx="9" fill="#2BB8A5" fill-opacity="0.2"/>
</svg>
